<?xml version="1.0" encoding="utf-8"?>
<!-- Generator: Adobe Illustrator 21.0.2, SVG Export Plug-In . SVG Version: 6.00 Build 0)  -->
<svg version="1.1" id="Layer_1" xmlns="http://www.w3.org/2000/svg" xmlns:xlink="http://www.w3.org/1999/xlink" x="0px" y="0px"
	 viewBox="0 0 600 130" style="enable-background:new 0 0 600 130;" xml:space="preserve">
<style type="text/css">
	.st0{fill:url(#SVGID_1_);}
	.st1{fill:url(#SVGID_2_);}
	.st2{fill:url(#SVGID_3_);}
	.st3{fill:url(#SVGID_4_);}
	.st4{fill:url(#SVGID_5_);}
	.st5{fill:url(#SVGID_6_);}
	.st6{fill:url(#SVGID_7_);}
	.st7{fill:url(#SVGID_8_);}
	.st8{fill:url(#SVGID_9_);}
	.st9{fill:url(#SVGID_10_);}
	.st10{fill:#FFFFFF;}
</style>
<g>
	
		<linearGradient id="SVGID_1_" gradientUnits="userSpaceOnUse" x1="5.665" y1="106.3494" x2="63.2505" y2="20.9754" gradientTransform="matrix(1 0 0 -1 0 132)">
		<stop  offset="0" style="stop-color:#2360B1"/>
		<stop  offset="0.25" style="stop-color:#256FBF"/>
		<stop  offset="0.5594" style="stop-color:#2360B1"/>
		<stop  offset="0.8" style="stop-color:#A02D6E"/>
		<stop  offset="0.9" style="stop-color:#F3506F"/>
		<stop  offset="1" style="stop-color:#FCB450"/>
	</linearGradient>
	<path class="st0" d="M42.2,98.3l8.8,16.4c6.9-4.3,13.7-8.8,20.4-13.5l-27.6-5C42.1,95.8,41.4,96.8,42.2,98.3z"/>
	
		<linearGradient id="SVGID_2_" gradientUnits="userSpaceOnUse" x1="-20.8539" y1="88.4622" x2="36.7317" y2="3.0881" gradientTransform="matrix(1 0 0 -1 0 132)">
		<stop  offset="0" style="stop-color:#2360B1"/>
		<stop  offset="0.25" style="stop-color:#256FBF"/>
		<stop  offset="0.5594" style="stop-color:#2360B1"/>
		<stop  offset="0.8" style="stop-color:#A02D6E"/>
		<stop  offset="0.9" style="stop-color:#F3506F"/>
		<stop  offset="1" style="stop-color:#FCB450"/>
	</linearGradient>
	<path class="st1" d="M32.4,94.1c-0.4-0.1-1.6,0.7-3.1,1.8L10.2,110c-2,14.4,10.1,22.7,26.3,13.1c3.1-1.8,6.1-3.5,9.2-5.3l-11.2-21
		C33.6,95.4,32.8,94.1,32.4,94.1z"/>
	
		<linearGradient id="SVGID_3_" gradientUnits="userSpaceOnUse" x1="46.5958" y1="133.9576" x2="104.1814" y2="48.5834" gradientTransform="matrix(1 0 0 -1 0 132)">
		<stop  offset="0" style="stop-color:#2360B1"/>
		<stop  offset="0.25" style="stop-color:#256FBF"/>
		<stop  offset="0.5594" style="stop-color:#2360B1"/>
		<stop  offset="0.8" style="stop-color:#A02D6E"/>
		<stop  offset="0.9" style="stop-color:#F3506F"/>
		<stop  offset="1" style="stop-color:#FCB450"/>
	</linearGradient>
	<path class="st2" d="M87,52.9l-11.3,8.3c-1.4,1.1-1.5,2.8-0.2,4l19,19c11.9-8.8,13.5-20.8,5.8-30.9l-7.6-1.6
		C90.9,51.3,88.4,51.8,87,52.9z"/>
	
		<linearGradient id="SVGID_4_" gradientUnits="userSpaceOnUse" x1="17.3347" y1="114.2207" x2="74.9202" y2="28.8466" gradientTransform="matrix(1 0 0 -1 0 132)">
		<stop  offset="0" style="stop-color:#2360B1"/>
		<stop  offset="0.25" style="stop-color:#256FBF"/>
		<stop  offset="0.5594" style="stop-color:#2360B1"/>
		<stop  offset="0.8" style="stop-color:#A02D6E"/>
		<stop  offset="0.9" style="stop-color:#F3506F"/>
		<stop  offset="1" style="stop-color:#FCB450"/>
	</linearGradient>
	<path class="st3" d="M70.6,68.9c-1.2-1.2-3.3-1.3-4.7-0.4L41,87.1c-1.4,1.1-1.1,2.1,0.6,2.3l36.7,6.8c3.8-2.7,7.5-5.5,11.3-8.5
		L70.6,68.9z"/>
	
		<linearGradient id="SVGID_5_" gradientUnits="userSpaceOnUse" x1="38.2941" y1="128.358" x2="95.8796" y2="42.984" gradientTransform="matrix(1 0 0 -1 0 132)">
		<stop  offset="0" style="stop-color:#2360B1"/>
		<stop  offset="0.25" style="stop-color:#256FBF"/>
		<stop  offset="0.5594" style="stop-color:#2360B1"/>
		<stop  offset="0.8" style="stop-color:#A02D6E"/>
		<stop  offset="0.9" style="stop-color:#F3506F"/>
		<stop  offset="1" style="stop-color:#FCB450"/>
	</linearGradient>
	<path class="st4" d="M78.6,48.6l-22-4.8c-1.6-0.4-2,0.4-0.8,1.5l11,11c1.2,1.2,3.3,1.3,4.7,0.4l7.6-5.6
		C80.4,50.2,80.2,49,78.6,48.6z"/>
	
		<linearGradient id="SVGID_6_" gradientUnits="userSpaceOnUse" x1="15.3729" y1="112.8974" x2="72.9584" y2="27.5233" gradientTransform="matrix(1 0 0 -1 0 132)">
		<stop  offset="0" style="stop-color:#2360B1"/>
		<stop  offset="0.25" style="stop-color:#256FBF"/>
		<stop  offset="0.5594" style="stop-color:#2360B1"/>
		<stop  offset="0.8" style="stop-color:#A02D6E"/>
		<stop  offset="0.9" style="stop-color:#F3506F"/>
		<stop  offset="1" style="stop-color:#FCB450"/>
	</linearGradient>
	<path class="st5" d="M35.2,33.6L12.1,10.5c-2.8,4.7-3.1,11.9,0.7,20l21.6,4.7C36.1,35.5,36.4,34.8,35.2,33.6z"/>
	
		<linearGradient id="SVGID_7_" gradientUnits="userSpaceOnUse" x1="-9.4631" y1="96.1454" x2="48.1224" y2="10.7713" gradientTransform="matrix(1 0 0 -1 0 132)">
		<stop  offset="0" style="stop-color:#2360B1"/>
		<stop  offset="0.25" style="stop-color:#256FBF"/>
		<stop  offset="0.5594" style="stop-color:#2360B1"/>
		<stop  offset="0.8" style="stop-color:#A02D6E"/>
		<stop  offset="0.9" style="stop-color:#F3506F"/>
		<stop  offset="1" style="stop-color:#FCB450"/>
	</linearGradient>
	<path class="st6" d="M27.8,84.6l-10.1-19c0,6.5-0.5,12.9-1.4,19.3l9.9,1.9C28,87,28.7,86,27.8,84.6z"/>
	
		<linearGradient id="SVGID_8_" gradientUnits="userSpaceOnUse" x1="38.4443" y1="128.4593" x2="96.0298" y2="43.0852" gradientTransform="matrix(1 0 0 -1 0 132)">
		<stop  offset="0" style="stop-color:#2360B1"/>
		<stop  offset="0.25" style="stop-color:#256FBF"/>
		<stop  offset="0.5594" style="stop-color:#2360B1"/>
		<stop  offset="0.8" style="stop-color:#A02D6E"/>
		<stop  offset="0.9" style="stop-color:#F3506F"/>
		<stop  offset="1" style="stop-color:#FCB450"/>
	</linearGradient>
	<path class="st7" d="M51.6,38.9l31.1,6.7c1.6,0.4,4.1-0.1,5.5-1.2l1.1-0.8c-17-12.9-33.9-24.7-52.8-35c-8.1-4.8-15.1-5-20-2.3
		l29.9,29.8C47.6,37.2,49.9,38.5,51.6,38.9z"/>
	
		<linearGradient id="SVGID_9_" gradientUnits="userSpaceOnUse" x1="-18.9704" y1="89.7326" x2="38.6152" y2="4.3585" gradientTransform="matrix(1 0 0 -1 0 132)">
		<stop  offset="0" style="stop-color:#2360B1"/>
		<stop  offset="0.25" style="stop-color:#256FBF"/>
		<stop  offset="0.5594" style="stop-color:#2360B1"/>
		<stop  offset="0.8" style="stop-color:#A02D6E"/>
		<stop  offset="0.9" style="stop-color:#F3506F"/>
		<stop  offset="1" style="stop-color:#FCB450"/>
	</linearGradient>
	<path class="st8" d="M20.6,91.8l-5.2-0.9c-0.6,3.2-1.3,6.2-2.2,9.3l7.9-5.9C22.4,93.2,22.2,92.2,20.6,91.8z"/>
	
		<linearGradient id="SVGID_10_" gradientUnits="userSpaceOnUse" x1="13.521" y1="111.6484" x2="71.1065" y2="26.2742" gradientTransform="matrix(1 0 0 -1 0 132)">
		<stop  offset="0" style="stop-color:#2360B1"/>
		<stop  offset="0.25" style="stop-color:#256FBF"/>
		<stop  offset="0.5594" style="stop-color:#2360B1"/>
		<stop  offset="0.8" style="stop-color:#A02D6E"/>
		<stop  offset="0.9" style="stop-color:#F3506F"/>
		<stop  offset="1" style="stop-color:#FCB450"/>
	</linearGradient>
	<path class="st9" d="M33.2,81.5c0.8,1.5,2.6,1.9,3.9,0.8l24.4-18.2c1.4-1.1,1.5-2.8,0.2-4L44.6,43c-1.2-1.2-3.5-2.5-5.2-2.8
		L14,34.7c1.3,5.3,2.2,10.7,2.9,16.2L33.2,81.5z"/>
</g>
<g>
	<path class="st10" d="M161.3,113.6c-8.8,0-16-2.2-21.6-6.5c-6.4-4.9-9.6-11.9-9.7-20.8H149c0,3.4,1.5,6,4.5,7.9
		c2.6,1.5,5.5,2.3,8.9,2.3c3.1,0,6-0.9,8.5-2.7c2.6-1.8,3.8-4.3,3.8-7.3c0-4.7-3.7-8.6-11.2-11.6c-12.4-5-19.4-8.1-21.1-9.2
		c-7.5-5-11.2-12.3-11.2-21.7c0-8.8,3-15.7,8.9-20.8c5.6-4.7,12.6-7,21.1-7c20.4,0,30.8,8.9,31.3,26.8h-18.3
		c0.1-3.4-1.2-6.2-3.8-8.3c-2.3-1.8-5.2-2.6-8.7-2.6c-3,0-5.6,0.9-7.8,2.6c-2.6,1.9-3.8,4.3-3.8,7.4c0,4.2,3.8,7.9,11.5,11.1
		c12.2,5,19.3,8.2,21.3,9.5c7.6,5.2,11.3,12.3,11.3,21.3c0,9.5-3.3,17-9.9,22.4C178.3,111.2,170.7,113.6,161.3,113.6z"/>
	<path class="st10" d="M234.8,111.5V18.2h20.7v93.3H234.8z"/>
	<path class="st10" d="M328.5,111.5h-30.8V18.2h32.5c7.7,0,13.9,2,18.6,6c5.1,4.3,7.7,10.5,7.7,18.3c0,8.9-3.3,15.7-9.9,20.4
		c7.9,4.5,11.9,11.7,11.9,21.8C358.4,102.6,348.4,111.5,328.5,111.5z M316.4,32.3v23.6h9.7c7.1,0,10.7-3.4,10.7-10.2
		c0-6.1-2.2-10-6.5-11.8C328,32.8,323.3,32.3,316.4,32.3z M338.3,84c0-7.9-5-11.9-15.1-11.9h-6.9v24h8.9C334,96,338.3,92,338.3,84z"
		/>
	<path class="st10" d="M397.6,64.8c0-14.3,4.4-26,13.2-35c8.8-9,20.1-13.5,33.8-13.5c13.6,0,24.8,4.5,33.7,13.5
		c8.9,9,13.3,20.6,13.3,35c0,14.3-4.4,26-13.3,35s-20.1,13.5-33.7,13.5c-13.6,0-24.8-4.5-33.7-13.6C402,90.7,397.6,79.1,397.6,64.8z
		 M418.3,64.8c0,8.5,2.4,15.6,7.2,21.3c4.8,5.8,11.1,8.6,19.1,8.6c8,0,14.4-2.9,19.4-8.8c4.6-5.6,6.9-12.7,6.9-21.1
		c0-8.6-2.4-15.7-7.1-21.3c-4.7-5.6-11.1-8.5-19.2-8.5c-8,0-14.3,2.8-19.1,8.5C420.7,49.2,418.3,56.3,418.3,64.8z"/>
	<path class="st10" d="M562.5,113.6c-8.8,0-16-2.2-21.6-6.5c-6.4-4.9-9.6-11.9-9.7-20.8h18.9c0,3.4,1.5,6,4.5,7.9
		c2.6,1.5,5.5,2.3,8.9,2.3c3.1,0,6-0.9,8.5-2.7c2.6-1.8,3.8-4.3,3.8-7.3c0-4.7-3.7-8.6-11.2-11.6c-12.4-5-19.4-8.1-21.1-9.2
		c-7.5-5-11.2-12.3-11.2-21.7c0-8.8,3-15.7,8.9-20.8c5.6-4.7,12.6-7,21.1-7c20.4,0,30.8,8.9,31.3,26.8h-18.3
		c0.1-3.4-1.2-6.2-3.8-8.3c-2.3-1.8-5.2-2.6-8.7-2.6c-3,0-5.6,0.9-7.8,2.6c-2.6,1.9-3.8,4.3-3.8,7.4c0,4.2,3.8,7.9,11.5,11.1
		c12.2,5,19.3,8.2,21.3,9.5c7.6,5.2,11.3,12.3,11.3,21.3c0,9.5-3.3,17-9.9,22.4C579.5,111.2,571.9,113.6,562.5,113.6z"/>
</g>
</svg>
